<?xml version="1.0" encoding="UTF-8"?>
<svg id="Layer_1" xmlns="http://www.w3.org/2000/svg" version="1.1" xmlns:xlink="http://www.w3.org/1999/xlink" viewBox="0 0 152.28 121.79">
  <!-- Generator: Adobe Illustrator 29.8.4, SVG Export Plug-In . SVG Version: 2.1.1 Build 6)  -->
  <defs>
    <linearGradient id="linear-gradient" x1="71.69" y1="67.98" x2="118.96" y2="17.1" gradientUnits="userSpaceOnUse">
      <stop offset="0" stop-color="#e6a095"/>
      <stop offset="1" stop-color="#ff8e7d"/>
    </linearGradient>
    <linearGradient id="linear-gradient1" x1="34.2" y1="93.34" x2="92.9" y2="56.22" gradientUnits="userSpaceOnUse">
      <stop offset="0" stop-color="#9b9fcc"/>
      <stop offset="1" stop-color="#c3c6ff"/>
    </linearGradient>
  </defs>
  <path d="M144.32,80.2c-4.29-4.29-9.44-6.43-15.46-6.43s-11.17,2.14-15.46,6.43c-4.29,4.29-6.43,9.44-6.43,15.46s2.14,11.17,6.43,15.46c4.29,4.29,9.44,6.43,15.46,6.43s11.17-2.14,15.46-6.43c4.29-4.29,6.43-9.44,6.43-15.46s-2.14-11.17-6.43-15.46ZM136.59,103.39c-2.14,2.14-4.72,3.22-7.73,3.22s-5.59-1.07-7.73-3.22-3.22-4.72-3.22-7.73,1.07-5.59,3.22-7.73,4.72-3.22,7.73-3.22,5.59,1.07,7.73,3.22c2.14,2.14,3.22,4.72,3.22,7.73s-1.07,5.59-3.22,7.73Z" fill="#f3de8a"/>
  <path d="M38.88,10.67c-4.29-4.29-9.44-6.43-15.46-6.43s-11.17,2.14-15.46,6.43C3.67,14.96,1.52,20.11,1.52,26.13s2.14,11.17,6.43,15.46c4.29,4.29,9.44,6.43,15.46,6.43s11.17-2.14,15.46-6.43c4.29-4.29,6.43-9.44,6.43-15.46s-2.14-11.17-6.43-15.46ZM31.15,33.86c-2.14,2.14-4.72,3.22-7.73,3.22s-5.59-1.07-7.73-3.22-3.22-4.72-3.22-7.73,1.07-5.59,3.22-7.73,4.72-3.22,7.73-3.22,5.59,1.07,7.73,3.22,3.22,4.72,3.22,7.73-1.07,5.59-3.22,7.73Z" fill="#7baf8b"/>
  <path d="M96.06,21.98c5.36-5.36,14.05-5.36,19.41,0,5.36,5.36,5.36,14.05,0,19.41l-20.59,20.59c-5.36,5.36-14.05,5.36-19.41,0-2.68-2.68-7.02-2.68-9.7,0-2.68,2.68-2.68,7.02,0,9.7,10.72,10.72,28.1,10.72,38.82,0l20.59-20.59c10.72-10.72,10.72-28.1,0-38.82-10.72-10.72-28.1-10.72-38.82,0l-10.29,10.29c-2.68,2.68-2.68,7.02,0,9.7,2.68,2.68,7.02,2.68,9.7,0l10.29-10.29Z" fill="url(#linear-gradient)" fill-rule="evenodd"/>
  <path d="M61.75,56.29c5.36-5.36,14.05-5.36,19.41,0,2.68,2.68,7.02,2.68,9.7,0,2.68-2.68,2.68-7.02,0-9.7-10.72-10.72-28.1-10.72-38.82,0l-20.59,20.59c-10.72,10.72-10.72,28.1,0,38.82,10.72,10.72,28.1,10.72,38.82,0l10.29-10.29c2.68-2.68,2.68-7.02,0-9.7-2.68-2.68-7.02-2.68-9.7,0l-10.29,10.29c-5.36,5.36-14.05,5.36-19.41,0-5.36-5.36-5.36-14.05,0-19.41l20.59-20.59Z" fill="url(#linear-gradient1)" fill-rule="evenodd"/>
</svg>